<?plantuml 1.2026.2?><svg xmlns="http://www.w3.org/2000/svg" xmlns:xlink="http://www.w3.org/1999/xlink" contentStyleType="text/css" data-diagram-type="CLASS" height="1834px" preserveAspectRatio="none" style="width:836px;height:1834px;background:#FFFFFF;" version="1.1" viewBox="0 0 836 1834" width="836px" zoomAndPan="magnify"><title>Domain model</title><defs><filter height="1" id="b74sfnstqzd810" width="1" x="0" y="0"><feFlood flood-color="#D6EAF8" result="flood"/><feComposite in="SourceGraphic" in2="flood" operator="over"/></filter><filter height="1" id="b74sfnstqzd811" width="1" x="0" y="0"><feFlood flood-color="#D5F5E3" result="flood"/><feComposite in="SourceGraphic" in2="flood" operator="over"/></filter><filter height="1" id="b74sfnstqzd812" width="1" x="0" y="0"><feFlood flood-color="#FAD7A0" result="flood"/><feComposite in="SourceGraphic" in2="flood" operator="over"/></filter><filter height="1" id="b74sfnstqzd813" width="1" x="0" y="0"><feFlood flood-color="#E8DAEF" result="flood"/><feComposite in="SourceGraphic" in2="flood" operator="over"/></filter><filter height="1" id="b74sfnstqzd814" width="1" x="0" y="0"><feFlood flood-color="#FCF3CF" result="flood"/><feComposite in="SourceGraphic" in2="flood" operator="over"/></filter><filter height="1" id="b74sfnstqzd815" width="1" x="0" y="0"><feFlood flood-color="#EAECEE" result="flood"/><feComposite in="SourceGraphic" in2="flood" operator="over"/></filter></defs><g><g class="title" data-source-line="11"><text fill="#000000" font-family="sans-serif" font-size="14" font-weight="bold" lengthAdjust="spacing" textLength="96.4551" x="362.7725" y="24.5332">Domain model</text></g><!--cluster com--><g class="cluster" data-qualified-name="com" data-source-line="23" id="ent0004"><rect fill="none" height="1636" rx="2.5" ry="2.5" style="stroke:#000000;stroke-width:1.5;" width="823" x="7" y="45.6094"/><text fill="#000000" font-family="sans-serif" font-size="14" font-weight="bold" lengthAdjust="spacing" textLength="28.7861" x="404.1069" y="62.1426">com</text></g><!--cluster example--><g class="cluster" data-qualified-name="com.example" data-source-line="23" id="ent0005"><rect fill="none" height="1568" rx="2.5" ry="2.5" style="stroke:#000000;stroke-width:1.5;" width="775" x="31" y="89.6094"/><text fill="#000000" font-family="sans-serif" font-size="14" font-weight="bold" lengthAdjust="spacing" textLength="56.0342" x="390.4829" y="106.1426">example</text></g><!--cluster helios--><g class="cluster" data-qualified-name="com.example.helios" data-source-line="23" id="ent0006"><rect fill="none" height="1500" rx="2.5" ry="2.5" style="stroke:#000000;stroke-width:1.5;" width="727" x="55" y="133.6094"/><text fill="#000000" font-family="sans-serif" font-size="14" font-weight="bold" lengthAdjust="spacing" textLength="40.4551" x="398.2725" y="150.1426">helios</text></g><!--cluster model--><g class="cluster" data-qualified-name="com.example.helios.model" data-source-line="22" id="ent0002"><rect fill="none" height="1432" rx="2.5" ry="2.5" style="stroke:#000000;stroke-width:1.5;" width="679" x="79" y="177.6094"/><text fill="#000000" font-family="sans-serif" font-size="14" font-weight="bold" lengthAdjust="spacing" textLength="41.2275" x="397.8862" y="194.1426">model</text></g><!--class T1--><g class="entity" data-qualified-name="com.example.helios.model.T1" data-source-line="23" id="ent0003"><rect fill="#FCF3CF" height="110.4375" rx="2.5" ry="2.5" style="stroke:#181818;stroke-width:0.5;" width="142.7305" x="153.5" y="500.6094"/><ellipse cx="181.2147" cy="516.6094" fill="#ADD1B2" rx="11" ry="11" style="stroke:#181818;stroke-width:1;"/><path d="M183.9803,512.4844 Q184.1366,512.2656 184.3241,512.1563 Q184.5116,512.0469 184.7303,512.0469 Q185.1053,512.0469 185.3397,512.3125 Q185.5741,512.5625 185.5741,513.1719 L185.5741,514.625 Q185.5741,515.2344 185.3397,515.5 Q185.1053,515.7656 184.7303,515.7656 Q184.3866,515.7656 184.1834,515.5625 Q183.9803,515.375 183.8709,514.8594 Q183.8241,514.5 183.6366,514.3125 Q183.3084,513.9375 182.6991,513.7188 Q182.0897,513.5 181.4647,513.5 Q180.6991,513.5 180.0584,513.8281 Q179.4334,514.1563 178.9334,514.9063 Q178.4491,515.6563 178.4491,516.6875 L178.4491,517.7813 Q178.4491,519.0156 179.3397,519.8438 Q180.2303,520.6563 181.8241,520.6563 Q182.7616,520.6563 183.4178,520.4063 Q183.8084,520.25 184.2303,519.8125 Q184.4959,519.5469 184.6366,519.4688 Q184.7928,519.3906 184.9959,519.3906 Q185.3241,519.3906 185.5741,519.6563 Q185.8397,519.9063 185.8397,520.25 Q185.8397,520.5938 185.4959,521 Q184.9959,521.5781 184.1991,521.9063 Q183.1209,522.3594 181.8241,522.3594 Q180.3084,522.3594 179.1053,521.7344 Q178.1209,521.2344 177.4334,520.1719 Q176.7459,519.0938 176.7459,517.8125 L176.7459,516.6563 Q176.7459,515.3281 177.3553,514.1875 Q177.9803,513.0313 179.0741,512.4219 Q180.1678,511.7969 181.4022,511.7969 Q182.1366,511.7969 182.7772,511.9688 Q183.4334,512.125 183.9803,512.4844 Z " fill="#000000"/><text fill="#000000" font-family="sans-serif" font-size="14" lengthAdjust="spacing" textLength="82.4756" x="198.0402" y="522.3379">AdminDevice</text><line style="stroke:#181818;stroke-width:0.5;" x1="154.5" x2="295.2305" y1="532.6094" y2="532.6094"/><text fill="#000000" font-family="sans-serif" font-size="14" lengthAdjust="spacing" textLength="126.0615" x="159.5" y="551.1426">-addedAtMillis : long</text><text fill="#000000" font-family="sans-serif" font-size="14" lengthAdjust="spacing" textLength="115.9854" x="159.5" y="568.752">-enabled : boolean</text><text fill="#000000" font-family="sans-serif" font-size="14" lengthAdjust="spacing" textLength="130.7305" x="159.5" y="586.3613">-installationId : String</text><text fill="#000000" font-family="sans-serif" font-size="14" lengthAdjust="spacing" textLength="80.1514" x="159.5" y="603.9707">-note : String</text></g><!--class T2--><g class="entity" data-qualified-name="com.example.helios.model.T2" data-source-line="30" id="ent0007"><rect fill="#FCF3CF" height="480.2344" rx="2.5" ry="2.5" style="stroke:#181818;stroke-width:0.5;" width="260.2402" x="95" y="645.6094"/><ellipse cx="202.9702" cy="661.6094" fill="#ADD1B2" rx="11" ry="11" style="stroke:#181818;stroke-width:1;"/><path d="M205.7358,657.4844 Q205.8921,657.2656 206.0796,657.1563 Q206.2671,657.0469 206.4858,657.0469 Q206.8608,657.0469 207.0952,657.3125 Q207.3296,657.5625 207.3296,658.1719 L207.3296,659.625 Q207.3296,660.2344 207.0952,660.5 Q206.8608,660.7656 206.4858,660.7656 Q206.1421,660.7656 205.939,660.5625 Q205.7358,660.375 205.6265,659.8594 Q205.5796,659.5 205.3921,659.3125 Q205.064,658.9375 204.4546,658.7188 Q203.8452,658.5 203.2202,658.5 Q202.4546,658.5 201.814,658.8281 Q201.189,659.1563 200.689,659.9063 Q200.2046,660.6563 200.2046,661.6875 L200.2046,662.7813 Q200.2046,664.0156 201.0952,664.8438 Q201.9858,665.6563 203.5796,665.6563 Q204.5171,665.6563 205.1733,665.4063 Q205.564,665.25 205.9858,664.8125 Q206.2515,664.5469 206.3921,664.4688 Q206.5483,664.3906 206.7515,664.3906 Q207.0796,664.3906 207.3296,664.6563 Q207.5952,664.9063 207.5952,665.25 Q207.5952,665.5938 207.2515,666 Q206.7515,666.5781 205.9546,666.9063 Q204.8765,667.3594 203.5796,667.3594 Q202.064,667.3594 200.8608,666.7344 Q199.8765,666.2344 199.189,665.1719 Q198.5015,664.0938 198.5015,662.8125 L198.5015,661.6563 Q198.5015,660.3281 199.1108,659.1875 Q199.7358,658.0313 200.8296,657.4219 Q201.9233,656.7969 203.1577,656.7969 Q203.8921,656.7969 204.5327,656.9688 Q205.189,657.125 205.7358,657.4844 Z " fill="#000000"/><text fill="#000000" font-family="sans-serif" font-size="14" lengthAdjust="spacing" textLength="35.7998" x="223.4702" y="667.3379">Event</text><line style="stroke:#181818;stroke-width:0.5;" x1="96" x2="354.2402" y1="677.6094" y2="677.6094"/><text fill="#000000" font-family="sans-serif" font-size="14" lengthAdjust="spacing" textLength="102.71" x="101" y="696.1426">-address : String</text><text fill="#000000" font-family="sans-serif" font-size="14" lengthAdjust="spacing" textLength="82.4756" x="101" y="713.752">-capacity : int</text><text fill="#000000" font-family="sans-serif" font-size="14" lengthAdjust="spacing" textLength="195.3027" x="101" y="731.3613">-coOrganizerUids : List&lt;String&gt;</text><text fill="#000000" font-family="sans-serif" font-size="14" lengthAdjust="spacing" textLength="120.6064" x="101" y="748.9707">-description : String</text><text fill="#000000" font-family="sans-serif" font-size="14" lengthAdjust="spacing" textLength="98.8203" x="101" y="766.5801">-drawCount : int</text><text fill="#000000" font-family="sans-serif" font-size="14" lengthAdjust="spacing" textLength="161.1162" x="101" y="784.1895">-drawHappened : boolean</text><text fill="#000000" font-family="sans-serif" font-size="14" lengthAdjust="spacing" textLength="128.3721" x="101" y="801.7988">-endTimeMillis : long</text><text fill="#000000" font-family="sans-serif" font-size="14" lengthAdjust="spacing" textLength="98.8271" x="101" y="819.4082">-eventId : String</text><text fill="#000000" font-family="sans-serif" font-size="14" lengthAdjust="spacing" textLength="174.3301" x="101" y="837.0176">-geofenceCenter : GeoPoint</text><text fill="#000000" font-family="sans-serif" font-size="14" lengthAdjust="spacing" textLength="203.8887" x="101" y="854.627">-geofenceRadiusMeters : Integer</text><text fill="#000000" font-family="sans-serif" font-size="14" lengthAdjust="spacing" textLength="194.585" x="101" y="872.2363">-geolocationRequired : boolean</text><text fill="#000000" font-family="sans-serif" font-size="14" lengthAdjust="spacing" textLength="143.9512" x="101" y="889.8457">-interests : List&lt;String&gt;</text><text fill="#000000" font-family="sans-serif" font-size="14" lengthAdjust="spacing" textLength="138.5029" x="101" y="907.4551">-locationName : String</text><text fill="#000000" font-family="sans-serif" font-size="14" lengthAdjust="spacing" textLength="157.1787" x="101" y="925.0645">-lotteryGuidelines : String</text><text fill="#000000" font-family="sans-serif" font-size="14" lengthAdjust="spacing" textLength="132.2754" x="101" y="942.6738">-organizerUid : String</text><text fill="#000000" font-family="sans-serif" font-size="14" lengthAdjust="spacing" textLength="248.2402" x="101" y="960.2832">-pendingCoOrganizerUids : List&lt;String&gt;</text><text fill="#000000" font-family="sans-serif" font-size="14" lengthAdjust="spacing" textLength="142.3994" x="101" y="977.8926">-posterImageId : String</text><text fill="#000000" font-family="sans-serif" font-size="14" lengthAdjust="spacing" textLength="143.9785" x="101" y="995.502">-privateEvent : boolean</text><text fill="#000000" font-family="sans-serif" font-size="14" lengthAdjust="spacing" textLength="134.627" x="101" y="1013.1113">-qrCodeValue : String</text><text fill="#000000" font-family="sans-serif" font-size="14" lengthAdjust="spacing" textLength="185.9512" x="101" y="1030.7207">-registrationClosesMillis : long</text><text fill="#000000" font-family="sans-serif" font-size="14" lengthAdjust="spacing" textLength="184.4063" x="101" y="1048.3301">-registrationOpensMillis : long</text><text fill="#000000" font-family="sans-serif" font-size="14" lengthAdjust="spacing" textLength="103.4824" x="101" y="1065.9395">-sampleSize : int</text><text fill="#000000" font-family="sans-serif" font-size="14" lengthAdjust="spacing" textLength="132.2412" x="101" y="1083.5488">-startTimeMillis : long</text><text fill="#000000" font-family="sans-serif" font-size="14" lengthAdjust="spacing" textLength="74.6895" x="101" y="1101.1582">-title : String</text><text fill="#000000" font-family="sans-serif" font-size="14" lengthAdjust="spacing" textLength="131.4824" x="101" y="1118.7676">-waitlistLimit : Integer</text></g><!--class T3--><g class="entity" data-qualified-name="com.example.helios.model.T3" data-source-line="58" id="ent0008"><rect fill="#FCF3CF" height="251.3125" rx="2.5" ry="2.5" style="stroke:#181818;stroke-width:0.5;" width="260.2334" x="95" y="214.1094"/><ellipse cx="172.6255" cy="230.1094" fill="#ADD1B2" rx="11" ry="11" style="stroke:#181818;stroke-width:1;"/><path d="M175.3911,225.9844 Q175.5474,225.7656 175.7349,225.6563 Q175.9224,225.5469 176.1411,225.5469 Q176.5161,225.5469 176.7505,225.8125 Q176.9849,226.0625 176.9849,226.6719 L176.9849,228.125 Q176.9849,228.7344 176.7505,229 Q176.5161,229.2656 176.1411,229.2656 Q175.7974,229.2656 175.5942,229.0625 Q175.3911,228.875 175.2817,228.3594 Q175.2349,228 175.0474,227.8125 Q174.7192,227.4375 174.1099,227.2188 Q173.5005,227 172.8755,227 Q172.1099,227 171.4692,227.3281 Q170.8442,227.6563 170.3442,228.4063 Q169.8599,229.1563 169.8599,230.1875 L169.8599,231.2813 Q169.8599,232.5156 170.7505,233.3438 Q171.6411,234.1563 173.2349,234.1563 Q174.1724,234.1563 174.8286,233.9063 Q175.2192,233.75 175.6411,233.3125 Q175.9067,233.0469 176.0474,232.9688 Q176.2036,232.8906 176.4067,232.8906 Q176.7349,232.8906 176.9849,233.1563 Q177.2505,233.4063 177.2505,233.75 Q177.2505,234.0938 176.9067,234.5 Q176.4067,235.0781 175.6099,235.4063 Q174.5317,235.8594 173.2349,235.8594 Q171.7192,235.8594 170.5161,235.2344 Q169.5317,234.7344 168.8442,233.6719 Q168.1567,232.5938 168.1567,231.3125 L168.1567,230.1563 Q168.1567,228.8281 168.7661,227.6875 Q169.3911,226.5313 170.4849,225.9219 Q171.5786,225.2969 172.813,225.2969 Q173.5474,225.2969 174.188,225.4688 Q174.8442,225.625 175.3911,225.9844 Z " fill="#000000"/><text fill="#000000" font-family="sans-serif" font-size="14" lengthAdjust="spacing" textLength="96.4824" x="193.1255" y="235.8379">EventComment</text><line style="stroke:#181818;stroke-width:0.5;" x1="96" x2="354.2334" y1="246.1094" y2="246.1094"/><text fill="#000000" font-family="sans-serif" font-size="14" lengthAdjust="spacing" textLength="189.1025" x="101" y="264.6426">-authorNameSnapshot : String</text><text fill="#000000" font-family="sans-serif" font-size="14" lengthAdjust="spacing" textLength="248.2334" x="101" y="282.252">-authorProfileImageUrlSnapshot : String</text><text fill="#000000" font-family="sans-serif" font-size="14" lengthAdjust="spacing" textLength="113.6064" x="101" y="299.8613">-authorUid : String</text><text fill="#000000" font-family="sans-serif" font-size="14" lengthAdjust="spacing" textLength="83.2617" x="101" y="317.4707">-body : String</text><text fill="#000000" font-family="sans-serif" font-size="14" lengthAdjust="spacing" textLength="122.1514" x="101" y="335.0801">-commentId : String</text><text fill="#000000" font-family="sans-serif" font-size="14" lengthAdjust="spacing" textLength="133.8271" x="101" y="352.6895">-createdAtMillis : long</text><text fill="#000000" font-family="sans-serif" font-size="14" lengthAdjust="spacing" textLength="98.8271" x="101" y="370.2988">-eventId : String</text><text fill="#000000" font-family="sans-serif" font-size="14" lengthAdjust="spacing" textLength="124.5234" x="101" y="387.9082">-isDeleted : boolean</text><text fill="#000000" font-family="sans-serif" font-size="14" lengthAdjust="spacing" textLength="89.4824" x="101" y="405.5176">-likeCount : int</text><text fill="#000000" font-family="sans-serif" font-size="14" lengthAdjust="spacing" textLength="164.958" x="101" y="423.127">-parentCommentId : String</text><text fill="#000000" font-family="sans-serif" font-size="14" lengthAdjust="spacing" textLength="108.1992" x="101" y="440.7363">-pinned : boolean</text><text fill="#000000" font-family="sans-serif" font-size="14" lengthAdjust="spacing" textLength="137.7373" x="101" y="458.3457">-updatedAtMillis : long</text></g><!--class T4--><g class="entity" data-qualified-name="com.example.helios.model.T4" data-source-line="73" id="ent0009"><rect fill="#FCF3CF" height="75.2188" rx="2.5" ry="2.5" style="stroke:#181818;stroke-width:0.5;" width="127.1992" x="515" y="848.1094"/><ellipse cx="546.5722" cy="864.1094" fill="#ADD1B2" rx="11" ry="11" style="stroke:#181818;stroke-width:1;"/><path d="M549.3378,859.9844 Q549.4941,859.7656 549.6816,859.6563 Q549.8691,859.5469 550.0878,859.5469 Q550.4628,859.5469 550.6972,859.8125 Q550.9316,860.0625 550.9316,860.6719 L550.9316,862.125 Q550.9316,862.7344 550.6972,863 Q550.4628,863.2656 550.0878,863.2656 Q549.7441,863.2656 549.541,863.0625 Q549.3378,862.875 549.2285,862.3594 Q549.1816,862 548.9941,861.8125 Q548.666,861.4375 548.0566,861.2188 Q547.4472,861 546.8222,861 Q546.0566,861 545.416,861.3281 Q544.791,861.6563 544.291,862.4063 Q543.8066,863.1563 543.8066,864.1875 L543.8066,865.2813 Q543.8066,866.5156 544.6972,867.3438 Q545.5878,868.1563 547.1816,868.1563 Q548.1191,868.1563 548.7753,867.9063 Q549.166,867.75 549.5878,867.3125 Q549.8535,867.0469 549.9941,866.9688 Q550.1503,866.8906 550.3535,866.8906 Q550.6816,866.8906 550.9316,867.1563 Q551.1972,867.4063 551.1972,867.75 Q551.1972,868.0938 550.8535,868.5 Q550.3535,869.0781 549.5566,869.4063 Q548.4785,869.8594 547.1816,869.8594 Q545.666,869.8594 544.4628,869.2344 Q543.4785,868.7344 542.791,867.6719 Q542.1035,866.5938 542.1035,865.3125 L542.1035,864.1563 Q542.1035,862.8281 542.7128,861.6875 Q543.3378,860.5313 544.4316,859.9219 Q545.5253,859.2969 546.7597,859.2969 Q547.4941,859.2969 548.1347,859.4688 Q548.791,859.625 549.3378,859.9844 Z " fill="#000000"/><text fill="#000000" font-family="sans-serif" font-size="14" lengthAdjust="spacing" textLength="58.3721" x="564.2549" y="869.8379">GeoPoint</text><line style="stroke:#181818;stroke-width:0.5;" x1="516" x2="641.1992" y1="880.1094" y2="880.1094"/><text fill="#000000" font-family="sans-serif" font-size="14" lengthAdjust="spacing" textLength="103.5166" x="521" y="898.6426">-latitude : double</text><text fill="#000000" font-family="sans-serif" font-size="14" lengthAdjust="spacing" textLength="115.1992" x="521" y="916.252">-longitude : double</text></g><!--class T5--><g class="entity" data-qualified-name="com.example.helios.model.T5" data-source-line="78" id="ent0010"><rect fill="#FCF3CF" height="128.0469" rx="2.5" ry="2.5" style="stroke:#181818;stroke-width:0.5;" width="156.7441" x="500" y="491.6094"/><ellipse cx="537.8691" cy="507.6094" fill="#ADD1B2" rx="11" ry="11" style="stroke:#181818;stroke-width:1;"/><path d="M540.6348,503.4844 Q540.791,503.2656 540.9785,503.1563 Q541.166,503.0469 541.3848,503.0469 Q541.7598,503.0469 541.9941,503.3125 Q542.2285,503.5625 542.2285,504.1719 L542.2285,505.625 Q542.2285,506.2344 541.9941,506.5 Q541.7598,506.7656 541.3848,506.7656 Q541.041,506.7656 540.8379,506.5625 Q540.6348,506.375 540.5254,505.8594 Q540.4785,505.5 540.291,505.3125 Q539.9629,504.9375 539.3535,504.7188 Q538.7441,504.5 538.1191,504.5 Q537.3535,504.5 536.7129,504.8281 Q536.0879,505.1563 535.5879,505.9063 Q535.1035,506.6563 535.1035,507.6875 L535.1035,508.7813 Q535.1035,510.0156 535.9941,510.8438 Q536.8848,511.6563 538.4785,511.6563 Q539.416,511.6563 540.0723,511.4063 Q540.4629,511.25 540.8848,510.8125 Q541.1504,510.5469 541.291,510.4688 Q541.4473,510.3906 541.6504,510.3906 Q541.9785,510.3906 542.2285,510.6563 Q542.4941,510.9063 542.4941,511.25 Q542.4941,511.5938 542.1504,512 Q541.6504,512.5781 540.8535,512.9063 Q539.7754,513.3594 538.4785,513.3594 Q536.9629,513.3594 535.7598,512.7344 Q534.7754,512.2344 534.0879,511.1719 Q533.4004,510.0938 533.4004,508.8125 L533.4004,507.6563 Q533.4004,506.3281 534.0098,505.1875 Q534.6348,504.0313 535.7285,503.4219 Q536.8223,502.7969 538.0566,502.7969 Q538.791,502.7969 539.4316,502.9688 Q540.0879,503.125 540.6348,503.4844 Z " fill="#000000"/><text fill="#000000" font-family="sans-serif" font-size="14" lengthAdjust="spacing" textLength="73.9238" x="556.9512" y="513.3379">ImageAsset</text><line style="stroke:#181818;stroke-width:0.5;" x1="501" x2="655.7441" y1="523.6094" y2="523.6094"/><text fill="#000000" font-family="sans-serif" font-size="14" lengthAdjust="spacing" textLength="98.8271" x="506" y="542.1426">-eventId : String</text><text fill="#000000" font-family="sans-serif" font-size="14" lengthAdjust="spacing" textLength="102.71" x="506" y="559.752">-imageId : String</text><text fill="#000000" font-family="sans-serif" font-size="14" lengthAdjust="spacing" textLength="112.041" x="506" y="577.3613">-ownerUid : String</text><text fill="#000000" font-family="sans-serif" font-size="14" lengthAdjust="spacing" textLength="128.3994" x="506" y="594.9707">-storagePath : String</text><text fill="#000000" font-family="sans-serif" font-size="14" lengthAdjust="spacing" textLength="144.7441" x="506" y="612.5801">-uploadedAtMillis : long</text></g><!--class T6--><g class="entity" data-qualified-name="com.example.helios.model.T6" data-source-line="86" id="ent0011"><rect fill="#FCF3CF" height="233.7031" rx="2.5" ry="2.5" style="stroke:#181818;stroke-width:0.5;" width="326.7471" x="415" y="1134.6094"/><ellipse cx="510.3066" cy="1150.6094" fill="#EB937F" rx="11" ry="11" style="stroke:#181818;stroke-width:1;"/><path d="M509.166,1151.4063 L509.166,1153.9063 L513.4941,1153.9063 L513.4941,1152.9844 Q513.4941,1152.375 513.7285,1152.1094 Q513.9785,1151.8438 514.3535,1151.8438 Q514.7285,1151.8438 514.9629,1152.1094 Q515.1973,1152.375 515.1973,1152.9844 L515.1973,1155.6094 L507.1973,1155.6094 Q506.5723,1155.6094 506.3066,1155.375 Q506.0566,1155.1406 506.0566,1154.75 Q506.0566,1154.375 506.3223,1154.1406 Q506.5879,1153.9063 507.1973,1153.9063 L507.4629,1153.9063 L507.4629,1147.25 L507.1973,1147.25 Q506.5723,1147.25 506.3066,1147.0156 Q506.0566,1146.7813 506.0566,1146.3906 Q506.0566,1146.0156 506.3066,1145.7813 Q506.5723,1145.5469 507.1973,1145.5469 L514.8223,1145.5469 L514.8223,1148.1406 Q514.8223,1148.75 514.5879,1149.0156 Q514.3691,1149.2656 513.9785,1149.2656 Q513.6035,1149.2656 513.3691,1149.0156 Q513.1348,1148.75 513.1348,1148.1406 L513.1348,1147.25 L509.166,1147.25 L509.166,1149.7031 L510.6504,1149.7031 Q510.6504,1149.0469 510.7754,1148.8594 Q511.041,1148.4531 511.5098,1148.4531 Q511.8848,1148.4531 512.1191,1148.7188 Q512.3535,1148.9688 512.3535,1149.5781 L512.3535,1151.5469 Q512.3535,1152.0938 512.2285,1152.2813 Q511.9629,1152.6719 511.5098,1152.6719 Q511.041,1152.6719 510.7754,1152.2656 Q510.6504,1152.0781 510.6504,1151.4063 L509.166,1151.4063 Z " fill="#000000"/><text fill="#000000" font-family="sans-serif" font-size="14" lengthAdjust="spacing" textLength="127.6338" x="530.8066" y="1156.3379">NotificationAudience</text><line style="stroke:#181818;stroke-width:0.5;" x1="416" x2="740.7471" y1="1166.6094" y2="1166.6094"/><text fill="#000000" font-family="sans-serif" font-size="14" lengthAdjust="spacing" textLength="223.7129" x="421" y="1185.1426">+ACCEPTED : NotificationAudience</text><text fill="#000000" font-family="sans-serif" font-size="14" lengthAdjust="spacing" textLength="219.8232" x="421" y="1202.752">+AUDIENCE : NotificationAudience</text><text fill="#000000" font-family="sans-serif" font-size="14" lengthAdjust="spacing" textLength="231.5059" x="421" y="1220.3613">+CANCELLED : NotificationAudience</text><text fill="#000000" font-family="sans-serif" font-size="14" lengthAdjust="spacing" textLength="312.3955" x="421" y="1237.9707">+CO_ORGANIZER_INVITE : NotificationAudience</text><text fill="#000000" font-family="sans-serif" font-size="14" lengthAdjust="spacing" textLength="218.2715" x="421" y="1255.5801">+DECLINED : NotificationAudience</text><text fill="#000000" font-family="sans-serif" font-size="14" lengthAdjust="spacing" textLength="226.0508" x="421" y="1273.1895">+INDIVIDUAL : NotificationAudience</text><text fill="#000000" font-family="sans-serif" font-size="14" lengthAdjust="spacing" textLength="202.7061" x="421" y="1290.7988">+INVITED : NotificationAudience</text><text fill="#000000" font-family="sans-serif" font-size="14" lengthAdjust="spacing" textLength="258.7266" x="421" y="1308.4082">+NOT_SELECTED : NotificationAudience</text><text fill="#000000" font-family="sans-serif" font-size="14" lengthAdjust="spacing" textLength="314.7471" x="421" y="1326.0176">+PRIVATE_EVENT_INVITE : NotificationAudience</text><text fill="#000000" font-family="sans-serif" font-size="14" lengthAdjust="spacing" textLength="221.3887" x="421" y="1343.627">+SELECTED : NotificationAudience</text><text fill="#000000" font-family="sans-serif" font-size="14" lengthAdjust="spacing" textLength="207.3613" x="421" y="1361.2363">+WAITING : NotificationAudience</text></g><!--class T7--><g class="entity" data-qualified-name="com.example.helios.model.T7" data-source-line="100" id="ent0012"><rect fill="#FCF3CF" height="180.875" rx="2.5" ry="2.5" style="stroke:#181818;stroke-width:0.5;" width="212.792" x="118.5" y="1161.1094"/><ellipse cx="163.4531" cy="1177.1094" fill="#ADD1B2" rx="11" ry="11" style="stroke:#181818;stroke-width:1;"/><path d="M166.2188,1172.9844 Q166.375,1172.7656 166.5625,1172.6563 Q166.75,1172.5469 166.9688,1172.5469 Q167.3438,1172.5469 167.5781,1172.8125 Q167.8125,1173.0625 167.8125,1173.6719 L167.8125,1175.125 Q167.8125,1175.7344 167.5781,1176 Q167.3438,1176.2656 166.9688,1176.2656 Q166.625,1176.2656 166.4219,1176.0625 Q166.2188,1175.875 166.1094,1175.3594 Q166.0625,1175 165.875,1174.8125 Q165.5469,1174.4375 164.9375,1174.2188 Q164.3281,1174 163.7031,1174 Q162.9375,1174 162.2969,1174.3281 Q161.6719,1174.6563 161.1719,1175.4063 Q160.6875,1176.1563 160.6875,1177.1875 L160.6875,1178.2813 Q160.6875,1179.5156 161.5781,1180.3438 Q162.4688,1181.1563 164.0625,1181.1563 Q165,1181.1563 165.6563,1180.9063 Q166.0469,1180.75 166.4688,1180.3125 Q166.7344,1180.0469 166.875,1179.9688 Q167.0313,1179.8906 167.2344,1179.8906 Q167.5625,1179.8906 167.8125,1180.1563 Q168.0781,1180.4063 168.0781,1180.75 Q168.0781,1181.0938 167.7344,1181.5 Q167.2344,1182.0781 166.4375,1182.4063 Q165.3594,1182.8594 164.0625,1182.8594 Q162.5469,1182.8594 161.3438,1182.2344 Q160.3594,1181.7344 159.6719,1180.6719 Q158.9844,1179.5938 158.9844,1178.3125 L158.9844,1177.1563 Q158.9844,1175.8281 159.5938,1174.6875 Q160.2188,1173.5313 161.3125,1172.9219 Q162.4063,1172.2969 163.6406,1172.2969 Q164.375,1172.2969 165.0156,1172.4688 Q165.6719,1172.625 166.2188,1172.9844 Z " fill="#000000"/><text fill="#000000" font-family="sans-serif" font-size="14" lengthAdjust="spacing" textLength="114.3857" x="183.9531" y="1182.8379">NotificationRecord</text><line style="stroke:#181818;stroke-width:0.5;" x1="119.5" x2="330.292" y1="1193.1094" y2="1193.1094"/><text fill="#000000" font-family="sans-serif" font-size="14" lengthAdjust="spacing" textLength="200.792" x="124.5" y="1211.6426">-audience : NotificationAudience</text><text fill="#000000" font-family="sans-serif" font-size="14" lengthAdjust="spacing" textLength="98.8271" x="124.5" y="1229.252">-eventId : String</text><text fill="#000000" font-family="sans-serif" font-size="14" lengthAdjust="spacing" textLength="109.71" x="124.5" y="1246.8613">-message : String</text><text fill="#000000" font-family="sans-serif" font-size="14" lengthAdjust="spacing" textLength="131.5098" x="124.5" y="1264.4707">-notificationId : String</text><text fill="#000000" font-family="sans-serif" font-size="14" lengthAdjust="spacing" textLength="126.8271" x="124.5" y="1282.0801">-recipientUid : String</text><text fill="#000000" font-family="sans-serif" font-size="14" lengthAdjust="spacing" textLength="116.7168" x="124.5" y="1299.6895">-senderUid : String</text><text fill="#000000" font-family="sans-serif" font-size="14" lengthAdjust="spacing" textLength="113.5928" x="124.5" y="1317.2988">-sentAtMillis : long</text><text fill="#000000" font-family="sans-serif" font-size="14" lengthAdjust="spacing" textLength="74.6895" x="124.5" y="1334.9082">-title : String</text></g><!--class T8--><g class="entity" data-qualified-name="com.example.helios.model.T8" data-source-line="111" id="ent0013"><rect fill="#FCF3CF" height="233.7031" rx="2.5" ry="2.5" style="stroke:#181818;stroke-width:0.5;" width="236.9023" x="460" y="222.6094"/><ellipse cx="539.5806" cy="238.6094" fill="#ADD1B2" rx="11" ry="11" style="stroke:#181818;stroke-width:1;"/><path d="M542.3462,234.4844 Q542.5024,234.2656 542.6899,234.1563 Q542.8774,234.0469 543.0962,234.0469 Q543.4712,234.0469 543.7056,234.3125 Q543.9399,234.5625 543.9399,235.1719 L543.9399,236.625 Q543.9399,237.2344 543.7056,237.5 Q543.4712,237.7656 543.0962,237.7656 Q542.7524,237.7656 542.5493,237.5625 Q542.3462,237.375 542.2368,236.8594 Q542.1899,236.5 542.0024,236.3125 Q541.6743,235.9375 541.0649,235.7188 Q540.4556,235.5 539.8306,235.5 Q539.0649,235.5 538.4243,235.8281 Q537.7993,236.1563 537.2993,236.9063 Q536.8149,237.6563 536.8149,238.6875 L536.8149,239.7813 Q536.8149,241.0156 537.7056,241.8438 Q538.5962,242.6563 540.1899,242.6563 Q541.1274,242.6563 541.7837,242.4063 Q542.1743,242.25 542.5962,241.8125 Q542.8618,241.5469 543.0024,241.4688 Q543.1587,241.3906 543.3618,241.3906 Q543.6899,241.3906 543.9399,241.6563 Q544.2056,241.9063 544.2056,242.25 Q544.2056,242.5938 543.8618,243 Q543.3618,243.5781 542.5649,243.9063 Q541.4868,244.3594 540.1899,244.3594 Q538.6743,244.3594 537.4712,243.7344 Q536.4868,243.2344 535.7993,242.1719 Q535.1118,241.0938 535.1118,239.8125 L535.1118,238.6563 Q535.1118,237.3281 535.7212,236.1875 Q536.3462,235.0313 537.4399,234.4219 Q538.5337,233.7969 539.7681,233.7969 Q540.5024,233.7969 541.1431,233.9688 Q541.7993,234.125 542.3462,234.4844 Z " fill="#000000"/><text fill="#000000" font-family="sans-serif" font-size="14" lengthAdjust="spacing" textLength="69.2412" x="560.0806" y="244.3379">UserProfile</text><line style="stroke:#181818;stroke-width:0.5;" x1="461" x2="695.9023" y1="254.6094" y2="254.6094"/><text fill="#000000" font-family="sans-serif" font-size="14" lengthAdjust="spacing" textLength="86.3584" x="466" y="273.1426">-email : String</text><text fill="#000000" font-family="sans-serif" font-size="14" lengthAdjust="spacing" textLength="114.3652" x="466" y="290.752">-fcmToken : String</text><text fill="#000000" font-family="sans-serif" font-size="14" lengthAdjust="spacing" textLength="130.7305" x="466" y="308.3613">-installationId : String</text><text fill="#000000" font-family="sans-serif" font-size="14" lengthAdjust="spacing" textLength="87.9238" x="466" y="325.9707">-name : String</text><text fill="#000000" font-family="sans-serif" font-size="14" lengthAdjust="spacing" textLength="191.4678" x="466" y="343.5801">-notificationsEnabled : boolean</text><text fill="#000000" font-family="sans-serif" font-size="14" lengthAdjust="spacing" textLength="224.9023" x="466" y="361.1895">-organizerAccessRevoked : boolean</text><text fill="#000000" font-family="sans-serif" font-size="14" lengthAdjust="spacing" textLength="91.834" x="466" y="378.7988">-phone : String</text><text fill="#000000" font-family="sans-serif" font-size="14" lengthAdjust="spacing" textLength="147.8271" x="466" y="396.4082">-profileImageUrl : String</text><text fill="#000000" font-family="sans-serif" font-size="14" lengthAdjust="spacing" textLength="76.248" x="466" y="414.0176">-role : String</text><text fill="#000000" font-family="sans-serif" font-size="14" lengthAdjust="spacing" textLength="200.04" x="466" y="431.627">-signInBannerEnabled : boolean</text><text fill="#000000" font-family="sans-serif" font-size="14" lengthAdjust="spacing" textLength="71.5859" x="466" y="449.2363">-uid : String</text></g><!--class T9--><g class="entity" data-qualified-name="com.example.helios.model.T9" data-source-line="125" id="ent0014"><rect fill="#FCF3CF" height="216.0938" rx="2.5" ry="2.5" style="stroke:#181818;stroke-width:0.5;" width="173.8408" x="138" y="1377.6094"/><ellipse cx="171.3133" cy="1393.6094" fill="#ADD1B2" rx="11" ry="11" style="stroke:#181818;stroke-width:1;"/><path d="M174.079,1389.4844 Q174.2352,1389.2656 174.4227,1389.1563 Q174.6102,1389.0469 174.829,1389.0469 Q175.204,1389.0469 175.4383,1389.3125 Q175.6727,1389.5625 175.6727,1390.1719 L175.6727,1391.625 Q175.6727,1392.2344 175.4383,1392.5 Q175.204,1392.7656 174.829,1392.7656 Q174.4852,1392.7656 174.2821,1392.5625 Q174.079,1392.375 173.9696,1391.8594 Q173.9227,1391.5 173.7352,1391.3125 Q173.4071,1390.9375 172.7977,1390.7188 Q172.1883,1390.5 171.5633,1390.5 Q170.7977,1390.5 170.1571,1390.8281 Q169.5321,1391.1563 169.0321,1391.9063 Q168.5477,1392.6563 168.5477,1393.6875 L168.5477,1394.7813 Q168.5477,1396.0156 169.4383,1396.8438 Q170.329,1397.6563 171.9227,1397.6563 Q172.8602,1397.6563 173.5165,1397.4063 Q173.9071,1397.25 174.329,1396.8125 Q174.5946,1396.5469 174.7352,1396.4688 Q174.8915,1396.3906 175.0946,1396.3906 Q175.4227,1396.3906 175.6727,1396.6563 Q175.9383,1396.9063 175.9383,1397.25 Q175.9383,1397.5938 175.5946,1398 Q175.0946,1398.5781 174.2977,1398.9063 Q173.2196,1399.3594 171.9227,1399.3594 Q170.4071,1399.3594 169.204,1398.7344 Q168.2196,1398.2344 167.5321,1397.1719 Q166.8446,1396.0938 166.8446,1394.8125 L166.8446,1393.6563 Q166.8446,1392.3281 167.454,1391.1875 Q168.079,1390.0313 169.1727,1389.4219 Q170.2665,1388.7969 171.5008,1388.7969 Q172.2352,1388.7969 172.8758,1388.9688 Q173.5321,1389.125 174.079,1389.4844 Z " fill="#000000"/><text fill="#000000" font-family="sans-serif" font-size="14" lengthAdjust="spacing" textLength="101.1445" x="189.383" y="1399.3379">WaitingListEntry</text><line style="stroke:#181818;stroke-width:0.5;" x1="139" x2="310.8408" y1="1409.6094" y2="1409.6094"/><text fill="#000000" font-family="sans-serif" font-size="14" lengthAdjust="spacing" textLength="146.2822" x="144" y="1428.1426">-cancelledAtMillis : long</text><text fill="#000000" font-family="sans-serif" font-size="14" lengthAdjust="spacing" textLength="117.4961" x="144" y="1445.752">-entrantUid : String</text><text fill="#000000" font-family="sans-serif" font-size="14" lengthAdjust="spacing" textLength="98.8271" x="144" y="1463.3613">-eventId : String</text><text fill="#000000" font-family="sans-serif" font-size="14" lengthAdjust="spacing" textLength="127.5996" x="144" y="1480.9707">-invitedAtMillis : long</text><text fill="#000000" font-family="sans-serif" font-size="14" lengthAdjust="spacing" textLength="132.3096" x="144" y="1498.5801">-joinLatitude : Double</text><text fill="#000000" font-family="sans-serif" font-size="14" lengthAdjust="spacing" textLength="143.9922" x="144" y="1516.1895">-joinLongitude : Double</text><text fill="#000000" font-family="sans-serif" font-size="14" lengthAdjust="spacing" textLength="124.4961" x="144" y="1533.7988">-joinedAtMillis : long</text><text fill="#000000" font-family="sans-serif" font-size="14" lengthAdjust="spacing" textLength="153.2959" x="144" y="1551.4082">-respondedAtMillis : long</text><text fill="#000000" font-family="sans-serif" font-size="14" lengthAdjust="spacing" textLength="161.8408" x="144" y="1569.0176">-status : WaitingListStatus</text><text fill="#000000" font-family="sans-serif" font-size="14" lengthAdjust="spacing" textLength="138.5098" x="144" y="1586.627">-statusReason : String</text></g><!--class T10--><g class="entity" data-qualified-name="com.example.helios.model.T10" data-source-line="138" id="ent0015"><rect fill="#FCF3CF" height="145.6563" rx="2.5" ry="2.5" style="stroke:#181818;stroke-width:0.5;" width="251.251" x="453" y="1412.6094"/><ellipse cx="520.2964" cy="1428.6094" fill="#EB937F" rx="11" ry="11" style="stroke:#181818;stroke-width:1;"/><path d="M519.1558,1429.4063 L519.1558,1431.9063 L523.4839,1431.9063 L523.4839,1430.9844 Q523.4839,1430.375 523.7183,1430.1094 Q523.9683,1429.8438 524.3433,1429.8438 Q524.7183,1429.8438 524.9526,1430.1094 Q525.187,1430.375 525.187,1430.9844 L525.187,1433.6094 L517.187,1433.6094 Q516.562,1433.6094 516.2964,1433.375 Q516.0464,1433.1406 516.0464,1432.75 Q516.0464,1432.375 516.312,1432.1406 Q516.5776,1431.9063 517.187,1431.9063 L517.4526,1431.9063 L517.4526,1425.25 L517.187,1425.25 Q516.562,1425.25 516.2964,1425.0156 Q516.0464,1424.7813 516.0464,1424.3906 Q516.0464,1424.0156 516.2964,1423.7813 Q516.562,1423.5469 517.187,1423.5469 L524.812,1423.5469 L524.812,1426.1406 Q524.812,1426.75 524.5776,1427.0156 Q524.3589,1427.2656 523.9683,1427.2656 Q523.5933,1427.2656 523.3589,1427.0156 Q523.1245,1426.75 523.1245,1426.1406 L523.1245,1425.25 L519.1558,1425.25 L519.1558,1427.7031 L520.6401,1427.7031 Q520.6401,1427.0469 520.7651,1426.8594 Q521.0308,1426.4531 521.4995,1426.4531 Q521.8745,1426.4531 522.1089,1426.7188 Q522.3433,1426.9688 522.3433,1427.5781 L522.3433,1429.5469 Q522.3433,1430.0938 522.2183,1430.2813 Q521.9526,1430.6719 521.4995,1430.6719 Q521.0308,1430.6719 520.7651,1430.2656 Q520.6401,1430.0781 520.6401,1429.4063 L519.1558,1429.4063 Z " fill="#000000"/><text fill="#000000" font-family="sans-serif" font-size="14" lengthAdjust="spacing" textLength="108.1582" x="540.7964" y="1434.3379">WaitingListStatus</text><line style="stroke:#181818;stroke-width:0.5;" x1="454" x2="703.251" y1="1444.6094" y2="1444.6094"/><text fill="#000000" font-family="sans-serif" font-size="14" lengthAdjust="spacing" textLength="204.2373" x="459" y="1463.1426">+ACCEPTED : WaitingListStatus</text><text fill="#000000" font-family="sans-serif" font-size="14" lengthAdjust="spacing" textLength="212.0303" x="459" y="1480.752">+CANCELLED : WaitingListStatus</text><text fill="#000000" font-family="sans-serif" font-size="14" lengthAdjust="spacing" textLength="198.7959" x="459" y="1498.3613">+DECLINED : WaitingListStatus</text><text fill="#000000" font-family="sans-serif" font-size="14" lengthAdjust="spacing" textLength="183.2305" x="459" y="1515.9707">+INVITED : WaitingListStatus</text><text fill="#000000" font-family="sans-serif" font-size="14" lengthAdjust="spacing" textLength="239.251" x="459" y="1533.5801">+NOT_SELECTED : WaitingListStatus</text><text fill="#000000" font-family="sans-serif" font-size="14" lengthAdjust="spacing" textLength="187.8857" x="459" y="1551.1895">+WAITING : WaitingListStatus</text></g><!--link T2 to T4--><g class="link" data-entity-1="ent0007" data-entity-2="ent0009" data-link-type="dependency" data-source-line="150" id="lnk16"><path codeLine="150" d="M355.12,885.6094 C409.66,885.6094 464.56,885.6094 508.99,885.6094" fill="none" id="T2-to-T4" style="stroke:#181818;stroke-width:1;"/><polygon fill="#181818" points="514.99,885.6094,505.99,881.6094,509.99,885.6094,505.99,889.6094,514.99,885.6094" style="stroke:#181818;stroke-width:1;"/><text fill="#000000" font-family="sans-serif" font-size="11" lengthAdjust="spacing" textLength="78.2783" x="356.06" y="883.0283">geofenceCenter</text><text fill="#000000" font-family="sans-serif" font-size="11" lengthAdjust="spacing" textLength="6.1177" x="363.2283" y="897.4427">1</text><text fill="#000000" font-family="sans-serif" font-size="11" lengthAdjust="spacing" textLength="18.3477" x="488.6146" y="897.8156">0..1</text></g><!--link T7 to T6--><g class="link" data-entity-1="ent0012" data-entity-2="ent0011" data-link-type="dependency" data-source-line="151" id="lnk17"><path codeLine="151" d="M331.54,1251.6094 C357.77,1251.6094 380.45,1251.6094 408.7,1251.6094" fill="none" id="T7-to-T6" style="stroke:#181818;stroke-width:1;"/><polygon fill="#181818" points="414.7,1251.6094,405.7,1247.6094,409.7,1251.6094,405.7,1255.6094,414.7,1251.6094" style="stroke:#181818;stroke-width:1;"/><text fill="#000000" font-family="sans-serif" font-size="11" lengthAdjust="spacing" textLength="44.6499" x="328.12" y="1249.0283">audience</text><text fill="#000000" font-family="sans-serif" font-size="11" lengthAdjust="spacing" textLength="6.1177" x="339.2535" y="1263.5191">1</text><text fill="#000000" font-family="sans-serif" font-size="11" lengthAdjust="spacing" textLength="18.3477" x="388.8836" y="1263.3485">0..1</text></g><!--link T9 to T10--><g class="link" data-entity-1="ent0014" data-entity-2="ent0015" data-link-type="dependency" data-source-line="152" id="lnk18"><path codeLine="152" d="M312.38,1485.6094 C354.7,1485.6094 400.3,1485.6094 446.76,1485.6094" fill="none" id="T9-to-T10" style="stroke:#181818;stroke-width:1;"/><polygon fill="#181818" points="452.76,1485.6094,443.76,1481.6094,447.76,1485.6094,443.76,1489.6094,452.76,1485.6094" style="stroke:#181818;stroke-width:1;"/><text fill="#000000" font-family="sans-serif" font-size="11" lengthAdjust="spacing" textLength="29.3477" x="352.57" y="1498.0283">status</text><text fill="#000000" font-family="sans-serif" font-size="11" lengthAdjust="spacing" textLength="6.1177" x="319.8761" y="1497.5973">1</text><text fill="#000000" font-family="sans-serif" font-size="11" lengthAdjust="spacing" textLength="18.3477" x="426.5522" y="1497.4604">0..1</text></g><g class="legend" data-source-line="13"><rect fill="#DDDDDD" height="115.6563" rx="7.5" ry="7.5" style="stroke:#000000;stroke-width:1;" width="111.165" x="698.835" y="1698.6094"/><text fill="#000000" filter="url(#b74sfnstqzd810)" font-family="sans-serif" font-size="14" lengthAdjust="spacing" textLength="14" x="703.835" y="1718.1426">UI</text><text fill="#000000" filter="url(#b74sfnstqzd811)" font-family="sans-serif" font-size="14" lengthAdjust="spacing" textLength="46.6826" x="703.835" y="1735.752">Service</text><text fill="#000000" filter="url(#b74sfnstqzd812)" font-family="sans-serif" font-size="14" lengthAdjust="spacing" textLength="100.3789" x="703.835" y="1753.3613">Repository/Data</text><text fill="#000000" filter="url(#b74sfnstqzd813)" font-family="sans-serif" font-size="14" lengthAdjust="spacing" textLength="101.165" x="703.835" y="1770.9707">Auth/ViewModel</text><text fill="#000000" filter="url(#b74sfnstqzd814)" font-family="sans-serif" font-size="14" lengthAdjust="spacing" textLength="38.1309" x="703.835" y="1788.5801">Model</text><text fill="#000000" filter="url(#b74sfnstqzd815)" font-family="sans-serif" font-size="14" lengthAdjust="spacing" textLength="73.124" x="703.835" y="1806.1895">Utility/Other</text></g><?plantuml-src ZLPRR-is37xthn2onw6tTUtfYYA0PpkTWJGfSZl0NWh5PXAjikGZoSsoOVzzj9tKZgpa7C0F1abHv4VoepYi336IABRU698o1ObXKdZwdOcSAfeHpWIONGv4AhEHBONUq5HkcLYJ5UKQMfg4KwrzOnHR5WRYH8ef-mV8TSiafyaxNSFKx3YGyb8grhpjmrTARWTIcEhepKttx8mP3ZvdQv61C8HZ9jw6fK0WoysEP90jGUbQb076dchFC-KX4igCCa4ocGBtF0vh46aDWKV8qnBzF_uKtaV-uA4_Zv-kIa6_fRaRt4Mt_Ice3vP0Hptmmo_-TNy2kTJCIBMx2gcX7RFe8VIZGTylpEPgmM3xKWRJTHOCReD1twsC_2Y8elxSCCxCxcfiDg0EHfXHdPVdxV4YlKHcb_0tpN8EbnlWJEhB2e8U-TUhQaPwVfen4KAPM8zGJMOtP1y3sX1oGMYQGkgR5yOvq-IHS2dMbG84NN98KRIKaWCLbPG9RIZdj6ogk5HEiIls9uGqq4Z-ymunH1zOp_hsNxgtAz3ws4z2CKC40ALCc5eansfD1RQEchEqj1yoRPxgG_tA90MTA9QNWHsxInNT1hB0bchybR8_Q9w3w6I84CzO1Wv0oZJidDSWLo0I25072dNF85_buPg3Ta9JLkWNG9FIPOosQr074owJ2iy9V2jmOBkGup7GnfdruUo8Pd0S6PS6p-sU2voNSkOja6KBpsCDWfBYV_1zo74Wy8eumsQqSSaL-w06gj9R-NnJ0JRfWlB2YbZ16czGLJu1bnfqjmXjcp56wZ3HrK1KDDCK7BjM6NTTQmevYcHBKORt35d6JAjWLay7Cii-M_lMRcqa0gdAkam5pVL6ckCxQlshaYl6eS9mhlWvqqwXbZBTMPDJ1sGN8r60jN1FkQkfcGw1OxFQdSZPEzYJX1JU8D7f0YQw0rRagIkQ1jl32DMu_chXMdAFATAoOgaiaABstIxMbhXnMA7hQmrxbtUMIpS8hhQMM-6O68rR0OrVgTaSAugSIvewSmLHPAGtaeQjM3t2Vf6oaYpg6E-FOloP-44GlSwY45su3jKsyp2EHa5qpYRmqM0uFEye6B-D9y_-AFupchp5eqKyE-ipZ89XF3hlCXw5yI8Ev_xml5Lvrrb7e_7iRHeDe-0xTg-JUE7FehTe4OrcFv34Z_ZywiUpUFHyogJfkBPw0ebKQLtLBnsIg8-UllH4TsQuDSitWBs0FrtO1_1Dnd9qQhhTYtplQcgqTJ66HPTDpdCD1pghatsmnmmVQVpuabMIpUGxM1lxx2EZi-ZQMUl8-MhvN7P-aY1m4_Z0IssZV2C5s5liY9qjHAMzDZI-NMFnEqNIK-v0YZRA3NHVST-Wf5omaJ1gL-FtcuLVGh4bE3_rNCEjwAYkczl41pkn4Fv2vXqs51is55jfMZHhgTpkyE6IIt7YYObLDaKfQUK_hMGjzGIeRZ_fFhcpSsZ_mBq-pPokUuufqMtH8ZYtGSDRRhr5McwZXbswUimQFmyVqBsR7hcuw9FUzUKb_k9-VBHUeHxIZ6rrZrO7il6mismzelQu1_n_?></g></svg>