<?plantuml 1.2026.2?><svg xmlns="http://www.w3.org/2000/svg" xmlns:xlink="http://www.w3.org/1999/xlink" contentStyleType="text/css" data-diagram-type="DESCRIPTION" height="484px" preserveAspectRatio="none" style="width:2383px;height:484px;background:#FFFFFF;" version="1.1" viewBox="0 0 2383 484" width="2383px" zoomAndPan="magnify"><title>Package dependency overview</title><defs/><g><g class="title" data-source-line="8"><text fill="#000000" font-family="sans-serif" font-size="14" font-weight="bold" lengthAdjust="spacing" textLength="206.2129" x="1081.5483" y="24.5332">Package dependency overview</text></g><!--entity P1--><g class="entity" data-qualified-name="P1" data-source-line="10" id="ent0002"><rect fill="#F1F1F1" height="37.6094" rx="2.5" ry="2.5" style="stroke:#181818;stroke-width:0.5;" width="185.7441" x="7" y="300.6094"/><text fill="#000000" font-family="sans-serif" font-size="14" lengthAdjust="spacing" textLength="165.7441" x="17" y="325.1426">com.example.helios.model</text></g><!--entity P2--><g class="entity" data-qualified-name="P2" data-source-line="11" id="ent0003"><rect fill="#F1F1F1" height="37.6094" rx="2.5" ry="2.5" style="stroke:#181818;stroke-width:0.5;" width="174.8613" x="253" y="192.6094"/><text fill="#000000" font-family="sans-serif" font-size="14" lengthAdjust="spacing" textLength="154.8613" x="263" y="217.1426">com.example.helios.auth</text></g><!--entity P3--><g class="entity" data-qualified-name="P3" data-source-line="12" id="ent0004"><rect fill="#F1F1F1" height="37.6094" rx="2.5" ry="2.5" style="stroke:#181818;stroke-width:0.5;" width="174.8613" x="488" y="336.6094"/><text fill="#000000" font-family="sans-serif" font-size="14" lengthAdjust="spacing" textLength="154.8613" x="498" y="361.1426">com.example.helios.data</text></g><!--entity P4--><g class="entity" data-qualified-name="P4" data-source-line="13" id="ent0005"><rect fill="#F1F1F1" height="37.6094" rx="2.5" ry="2.5" style="stroke:#181818;stroke-width:0.5;" width="191.958" x="723" y="268.6094"/><text fill="#000000" font-family="sans-serif" font-size="14" lengthAdjust="spacing" textLength="171.958" x="733" y="293.1426">com.example.helios.service</text></g><!--entity P5--><g class="entity" data-qualified-name="P5" data-source-line="14" id="ent0006"><rect fill="#F1F1F1" height="37.6094" rx="2.5" ry="2.5" style="stroke:#181818;stroke-width:0.5;" width="158.5098" x="975" y="45.6094"/><text fill="#000000" font-family="sans-serif" font-size="14" lengthAdjust="spacing" textLength="138.5098" x="985" y="70.1426">com.example.helios.ui</text></g><!--entity P6--><g class="entity" data-qualified-name="P6" data-source-line="15" id="ent0007"><rect fill="#F1F1F1" height="37.6094" rx="2.5" ry="2.5" style="stroke:#181818;stroke-width:0.5;" width="216.082" x="1194" y="188.6094"/><text fill="#000000" font-family="sans-serif" font-size="14" lengthAdjust="spacing" textLength="196.082" x="1204" y="213.1426">com.example.helios.ui.common</text></g><!--entity P7--><g class="entity" data-qualified-name="P7" data-source-line="16" id="ent0008"><rect fill="#F1F1F1" height="37.6094" rx="2.5" ry="2.5" style="stroke:#181818;stroke-width:0.5;" width="196.6475" x="1470" y="365.6094"/><text fill="#000000" font-family="sans-serif" font-size="14" lengthAdjust="spacing" textLength="176.6475" x="1480" y="390.1426">com.example.helios.ui.event</text></g><!--entity P8--><g class="entity" data-qualified-name="P8" data-source-line="17" id="ent0009"><rect fill="#F1F1F1" height="37.6094" rx="2.5" ry="2.5" style="stroke:#181818;stroke-width:0.5;" width="184.9717" x="1727" y="436.6094"/><text fill="#000000" font-family="sans-serif" font-size="14" lengthAdjust="spacing" textLength="164.9717" x="1737" y="461.1426">com.example.helios.ui.nav</text></g><!--entity P9--><g class="entity" data-qualified-name="P9" data-source-line="18" id="ent0010"><rect fill="#F1F1F1" height="37.6094" rx="2.5" ry="2.5" style="stroke:#181818;stroke-width:0.5;" width="201.3096" x="2176" y="276.6094"/><text fill="#000000" font-family="sans-serif" font-size="14" lengthAdjust="spacing" textLength="181.3096" x="2186" y="301.1426">com.example.helios.ui.theme</text></g><!--entity P10--><g class="entity" data-qualified-name="P10" data-source-line="19" id="ent0011"><rect fill="#F1F1F1" height="37.6094" rx="2.5" ry="2.5" style="stroke:#181818;stroke-width:0.5;" width="143.7236" x="1972" y="276.6094"/><text fill="#000000" font-family="sans-serif" font-size="14" lengthAdjust="spacing" textLength="123.7236" x="1982" y="301.1426">com.example.helios</text></g><!--link P1 to P2--><!--link P2 to P3--><!--link P3 to P4--><!--link P4 to P3--><g class="link" data-entity-1="ent0005" data-entity-2="ent0004" data-link-type="dependency" data-source-line="34" id="lnk24"><path d="M722.96,292.6094 C655.04,292.6094 576,292.6094 576,292.6094 C576,292.6094 576,311.8394 576,330.3594" fill="none" id="P4-to-P3" style="stroke:#181818;stroke-width:1;"/><polygon fill="#181818" points="576,336.3594,580,327.3594,576,331.3594,572,327.3594,576,336.3594" style="stroke:#181818;stroke-width:1;"/><text fill="#000000" font-family="sans-serif" font-size="11" lengthAdjust="spacing" textLength="105.166" x="521.6" y="305.0283">19 structural, 35 uses</text></g><!--link P4 to P5--><!--link P5 to P4--><g class="link" data-entity-1="ent0006" data-entity-2="ent0005" data-link-type="dependency" data-source-line="39" id="lnk29"><path d="M1028,83.9494 C1028,135.1294 1028,270.2094 1028,270.2094 C1028,270.2094 976.09,270.2094 921.24,270.2094" fill="none" id="P5-to-P4" style="stroke:#181818;stroke-width:1;"/><polygon fill="#181818" points="915.24,270.2094,924.24,274.2094,920.24,270.2094,924.24,266.2094,915.24,270.2094" style="stroke:#181818;stroke-width:1;"/><text fill="#000000" font-family="sans-serif" font-size="11" lengthAdjust="spacing" textLength="92.9307" x="935" y="245.8783">3 structural, 2 uses</text></g><!--link P5 to P6--><!--link P6 to P7--><!--link P7 to P8--><!--link P8 to P7--><g class="link" data-entity-1="ent0009" data-entity-2="ent0008" data-link-type="dependency" data-source-line="51" id="lnk41"><path d="M1801,436.5794 C1801,415.5494 1801,384.6094 1801,384.6094 C1801,384.6094 1736.47,384.6094 1673.1,384.6094" fill="none" id="P8-to-P7" style="stroke:#181818;stroke-width:1;stroke-dasharray:7,7;"/><polygon fill="#181818" points="1667.1,384.6094,1676.1,388.6094,1672.1,384.6094,1676.1,380.6094,1667.1,384.6094" style="stroke:#181818;stroke-width:1;"/><text fill="#000000" font-family="sans-serif" font-size="11" lengthAdjust="spacing" textLength="32.4092" x="1727.04" y="397.0283">2 uses</text></g><!--link P8 to P9--><!--link P8 to P9--><g class="link" data-entity-1="ent0009" data-entity-2="ent0010" data-link-type="dependency" data-source-line="52" id="lnk42"><path d="M1912.18,455.6094 C2036.81,455.6094 2243,455.6094 2243,455.6094 C2243,455.6094 2243,363.4594 2243,320.9094" fill="none" id="P8-to-P9-1" style="stroke:#181818;stroke-width:1;"/><polygon fill="#181818" points="2243,314.9094,2239,323.9094,2243,319.9094,2247,323.9094,2243,314.9094" style="stroke:#181818;stroke-width:1;"/><text fill="#000000" font-family="sans-serif" font-size="11" lengthAdjust="spacing" textLength="92.9307" x="2054.94" y="468.0283">1 structural, 4 uses</text></g><!--link P9 to P10--><!--link P10 to P9--><g class="link" data-entity-1="ent0011" data-entity-2="ent0010" data-link-type="dependency" data-source-line="58" id="lnk48"><path d="M2116.29,289.2694 C2135.09,289.2694 2149.68,289.2694 2169.66,289.2694" fill="none" id="P10-to-P9" style="stroke:#181818;stroke-width:1;"/><polygon fill="#181818" points="2175.66,289.2694,2166.66,285.2694,2170.66,289.2694,2166.66,293.2694,2175.66,289.2694" style="stroke:#181818;stroke-width:1;"/><text fill="#000000" font-family="sans-serif" font-size="11" lengthAdjust="spacing" textLength="92.9307" x="2052.97" y="286.6883">1 structural, 2 uses</text></g><!--link P3 to P1--><g class="link" data-entity-1="ent0004" data-entity-2="ent0002" data-link-type="dependency" data-source-line="31" id="lnk21"><path d="M620,336.2994 C620,333.2694 620,331.1094 620,331.1094 C620,331.1094 348.91,331.1094 199.27,331.1094" fill="none" id="P3-to-P1" style="stroke:#181818;stroke-width:1;stroke-dasharray:7,7;"/><polygon fill="#181818" points="193.27,331.1094,202.27,335.1094,198.27,331.1094,202.27,327.1094,193.27,331.1094" style="stroke:#181818;stroke-width:1;"/><text fill="#000000" font-family="sans-serif" font-size="11" lengthAdjust="spacing" textLength="38.5269" x="370.23" y="343.5283">69 uses</text></g><!--link P4 to P1--><g class="link" data-entity-1="ent0005" data-entity-2="ent0002" data-link-type="dependency" data-source-line="32" id="lnk22"><path d="M787,307.0094 C787,309.1694 787,310.6094 787,310.6094 C787,310.6094 386.69,310.6094 199.01,310.6094" fill="none" id="P4-to-P1" style="stroke:#181818;stroke-width:1;"/><polygon fill="#181818" points="193.01,310.6094,202.01,314.6094,198.01,310.6094,202.01,306.6094,193.01,310.6094" style="stroke:#181818;stroke-width:1;"/><text fill="#000000" font-family="sans-serif" font-size="11" lengthAdjust="spacing" textLength="105.166" x="385.8" y="323.0283">5 structural, 111 uses</text></g><!--link P4 to P2--><g class="link" data-entity-1="ent0005" data-entity-2="ent0003" data-link-type="dependency" data-source-line="33" id="lnk23"><path d="M722.95,276.6094 C595.12,276.6094 385,276.6094 385,276.6094 C385,276.6094 385,255.9294 385,236.7594" fill="none" id="P4-to-P2" style="stroke:#181818;stroke-width:1;"/><polygon fill="#181818" points="385,230.7594,381,239.7594,385,235.7594,389,239.7594,385,230.7594" style="stroke:#181818;stroke-width:1;"/><text fill="#000000" font-family="sans-serif" font-size="11" lengthAdjust="spacing" textLength="92.9307" x="438.05" y="289.0283">3 structural, 6 uses</text></g><!--link P4 to P10--><g class="link" data-entity-1="ent0005" data-entity-2="ent0011" data-link-type="dependency" data-source-line="35" id="lnk25"><path d="M915.12,288.6094 C1152.44,288.6094 1756.06,288.6094 1965.82,288.6094" fill="none" id="P4-to-P10" style="stroke:#181818;stroke-width:1;stroke-dasharray:7,7;"/><polygon fill="#181818" points="1971.82,288.6094,1962.82,284.6094,1966.82,288.6094,1962.82,292.6094,1971.82,288.6094" style="stroke:#181818;stroke-width:1;"/><text fill="#000000" font-family="sans-serif" font-size="11" lengthAdjust="spacing" textLength="32.4092" x="1410.47" y="301.0283">1 uses</text></g><!--link P10 to P4--><g class="link" data-entity-1="ent0011" data-entity-2="ent0005" data-link-type="dependency" data-source-line="57" id="lnk47"><path d="M1971.94,294.6094 C1762.31,294.6094 1158.57,294.6094 921.17,294.6094" fill="none" id="P10-to-P4" style="stroke:#181818;stroke-width:1;"/><polygon fill="#181818" points="915.17,294.6094,924.17,298.6094,920.17,294.6094,924.17,290.6094,915.17,294.6094" style="stroke:#181818;stroke-width:1;"/><text fill="#000000" font-family="sans-serif" font-size="11" lengthAdjust="spacing" textLength="105.166" x="1444.56" y="292.0283">12 structural, 24 uses</text></g><!--link P5 to P1--><g class="link" data-entity-1="ent0006" data-entity-2="ent0002" data-link-type="dependency" data-source-line="36" id="lnk26"><path d="M1064,83.6594 C1064,141.7294 1064,312.6094 1064,312.6094 C1064,312.6094 441.24,312.6094 199.31,312.6094" fill="none" id="P5-to-P1" style="stroke:#181818;stroke-width:1;"/><polygon fill="#181818" points="193.31,312.6094,202.31,316.6094,198.31,312.6094,202.31,308.6094,193.31,312.6094" style="stroke:#181818;stroke-width:1;"/><text fill="#000000" font-family="sans-serif" font-size="11" lengthAdjust="spacing" textLength="105.166" x="637.13" y="325.0283">18 structural, 71 uses</text></g><!--link P5 to P2--><g class="link" data-entity-1="ent0006" data-entity-2="ent0003" data-link-type="dependency" data-source-line="37" id="lnk27"><path d="M1011,83.8594 C1011,123.2994 1011,209.6094 1011,209.6094 C1011,209.6094 615.9,209.6094 434.16,209.6094" fill="none" id="P5-to-P2" style="stroke:#181818;stroke-width:1;"/><polygon fill="#181818" points="428.16,209.6094,437.16,213.6094,433.16,209.6094,437.16,205.6094,428.16,209.6094" style="stroke:#181818;stroke-width:1;"/><text fill="#000000" font-family="sans-serif" font-size="11" lengthAdjust="spacing" textLength="54.4092" x="727.45" y="222.0283">1 structural</text></g><!--link P5 to P3--><g class="link" data-entity-1="ent0006" data-entity-2="ent0004" data-link-type="dependency" data-source-line="38" id="lnk28"><path d="M1081,83.9694 C1081,147.5994 1081,346.2694 1081,346.2694 C1081,346.2694 814.02,346.2694 669.26,346.2694" fill="none" id="P5-to-P3" style="stroke:#181818;stroke-width:1;"/><polygon fill="#181818" points="663.26,346.2694,672.26,350.2694,668.26,346.2694,672.26,342.2694,663.26,346.2694" style="stroke:#181818;stroke-width:1;"/><text fill="#000000" font-family="sans-serif" font-size="11" lengthAdjust="spacing" textLength="54.4092" x="948.28" y="358.6883">1 structural</text></g><!--link P5 to P9--><g class="link" data-entity-1="ent0006" data-entity-2="ent0010" data-link-type="dependency" data-source-line="40" id="lnk30"><path d="M1134.24,58.2694 C1405.68,58.2694 2277,58.2694 2277,58.2694 C2277,58.2694 2277,214.2694 2277,270.5894" fill="none" id="P5-to-P9" style="stroke:#181818;stroke-width:1;stroke-dasharray:7,7;"/><polygon fill="#181818" points="2277,276.5894,2281,267.5894,2277,271.5894,2273,267.5894,2277,276.5894" style="stroke:#181818;stroke-width:1;"/><text fill="#000000" font-family="sans-serif" font-size="11" lengthAdjust="spacing" textLength="32.4092" x="1781.78" y="70.6883">1 uses</text></g><!--link P5 to P10--><g class="link" data-entity-1="ent0006" data-entity-2="ent0011" data-link-type="dependency" data-source-line="41" id="lnk31"><path d="M1134.22,70.9394 C1369.41,70.9394 2044,70.9394 2044,70.9394 C2044,70.9394 2044,216.1194 2044,270.4494" fill="none" id="P5-to-P10" style="stroke:#181818;stroke-width:1;stroke-dasharray:7,7;"/><polygon fill="#181818" points="2044,276.4494,2048,267.4494,2044,271.4494,2040,267.4494,2044,276.4494" style="stroke:#181818;stroke-width:1;"/><text fill="#000000" font-family="sans-serif" font-size="11" lengthAdjust="spacing" textLength="32.4092" x="1658.87" y="83.3583">4 uses</text></g><!--link P6 to P4--><g class="link" data-entity-1="ent0007" data-entity-2="ent0005" data-link-type="dependency" data-source-line="42" id="lnk32"><path d="M1266,226.6394 C1266,246.0694 1266,273.4094 1266,273.4094 C1266,273.4094 1052.54,273.4094 921.17,273.4094" fill="none" id="P6-to-P4" style="stroke:#181818;stroke-width:1;stroke-dasharray:7,7;"/><polygon fill="#181818" points="915.17,273.4094,924.17,277.4094,920.17,273.4094,924.17,269.4094,915.17,273.4094" style="stroke:#181818;stroke-width:1;"/><text fill="#000000" font-family="sans-serif" font-size="11" lengthAdjust="spacing" textLength="32.4092" x="1080.97" y="285.8283">1 uses</text></g><!--link P6 to P9--><g class="link" data-entity-1="ent0007" data-entity-2="ent0010" data-link-type="dependency" data-source-line="43" id="lnk33"><path d="M1410.37,207.6094 C1654.64,207.6094 2227,207.6094 2227,207.6094 C2227,207.6094 2227,244.6294 2227,270.5094" fill="none" id="P6-to-P9" style="stroke:#181818;stroke-width:1;stroke-dasharray:7,7;"/><polygon fill="#181818" points="2227,276.5094,2231,267.5094,2227,271.5094,2223,267.5094,2227,276.5094" style="stroke:#181818;stroke-width:1;"/><text fill="#000000" font-family="sans-serif" font-size="11" lengthAdjust="spacing" textLength="32.4092" x="1820.14" y="220.0283">1 uses</text></g><!--link P7 to P1--><g class="link" data-entity-1="ent0008" data-entity-2="ent0002" data-link-type="dependency" data-source-line="44" id="lnk34"><path d="M1569,365.2894 C1569,348.0794 1569,325.6094 1569,325.6094 C1569,325.6094 521.92,325.6094 199.01,325.6094" fill="none" id="P7-to-P1" style="stroke:#181818;stroke-width:1;"/><polygon fill="#181818" points="193.01,325.6094,202.01,329.6094,198.01,325.6094,202.01,321.6094,193.01,325.6094" style="stroke:#181818;stroke-width:1;"/><text fill="#000000" font-family="sans-serif" font-size="11" lengthAdjust="spacing" textLength="99.0483" x="800.84" y="338.0283">8 structural, 57 uses</text></g><!--link P7 to P4--><g class="link" data-entity-1="ent0008" data-entity-2="ent0005" data-link-type="dependency" data-source-line="45" id="lnk35"><path d="M1469.86,371.6094 C1273.2,371.6094 851,371.6094 851,371.6094 C851,371.6094 851,337.4494 851,312.6694" fill="none" id="P7-to-P4" style="stroke:#181818;stroke-width:1;"/><polygon fill="#181818" points="851,306.6694,847,315.6694,851,311.6694,855,315.6694,851,306.6694" style="stroke:#181818;stroke-width:1;"/><text fill="#000000" font-family="sans-serif" font-size="11" lengthAdjust="spacing" textLength="92.9307" x="1034.96" y="384.0283">5 structural, 2 uses</text></g><!--link P7 to P10--><g class="link" data-entity-1="ent0008" data-entity-2="ent0011" data-link-type="dependency" data-source-line="46" id="lnk36"><path d="M1667.02,375.1094 C1806.3,375.1094 2044,375.1094 2044,375.1094 C2044,375.1094 2044,344.3794 2044,320.8494" fill="none" id="P7-to-P10" style="stroke:#181818;stroke-width:1;stroke-dasharray:7,7;"/><polygon fill="#181818" points="2044,314.8494,2040,323.8494,2044,319.8494,2048,323.8494,2044,314.8494" style="stroke:#181818;stroke-width:1;"/><text fill="#000000" font-family="sans-serif" font-size="11" lengthAdjust="spacing" textLength="32.4092" x="1852.64" y="387.5283">1 uses</text></g><!--link P8 to P1--><g class="link" data-entity-1="ent0009" data-entity-2="ent0002" data-link-type="dependency" data-source-line="47" id="lnk37"><path d="M1838,436.4794 C1838,399.1294 1838,320.1094 1838,320.1094 C1838,320.1094 559.71,320.1094 199.13,320.1094" fill="none" id="P8-to-P1" style="stroke:#181818;stroke-width:1;"/><polygon fill="#181818" points="193.13,320.1094,202.13,324.1094,198.13,320.1094,202.13,316.1094,193.13,320.1094" style="stroke:#181818;stroke-width:1;"/><text fill="#000000" font-family="sans-serif" font-size="11" lengthAdjust="spacing" textLength="111.2837" x="961.75" y="332.5283">31 structural, 149 uses</text></g><!--link P8 to P3--><g class="link" data-entity-1="ent0009" data-entity-2="ent0004" data-link-type="dependency" data-source-line="48" id="lnk38"><path d="M1726.8,461.9394 C1438.36,461.9394 576,461.9394 576,461.9394 C576,461.9394 576,411.1994 576,380.6194" fill="none" id="P8-to-P3" style="stroke:#181818;stroke-width:1;"/><polygon fill="#181818" points="576,374.6194,572,383.6194,576,379.6194,580,383.6194,576,374.6194" style="stroke:#181818;stroke-width:1;"/><text fill="#000000" font-family="sans-serif" font-size="11" lengthAdjust="spacing" textLength="54.4092" x="1052.74" y="474.3583">2 structural</text></g><!--link P8 to P4--><g class="link" data-entity-1="ent0009" data-entity-2="ent0005" data-link-type="dependency" data-source-line="49" id="lnk39"><path d="M1875,436.5994 C1875,395.2094 1875,300.6094 1875,300.6094 C1875,300.6094 1181.36,300.6094 921.04,300.6094" fill="none" id="P8-to-P4" style="stroke:#181818;stroke-width:1;"/><polygon fill="#181818" points="915.04,300.6094,924.04,304.6094,920.04,300.6094,924.04,296.6094,915.04,300.6094" style="stroke:#181818;stroke-width:1;"/><text fill="#000000" font-family="sans-serif" font-size="11" lengthAdjust="spacing" textLength="99.0483" x="1464.02" y="313.0283">44 structural, 1 uses</text></g><!--link P8 to P5--><g class="link" data-entity-1="ent0009" data-entity-2="ent0006" data-link-type="dependency" data-source-line="50" id="lnk40"><path d="M1726.78,449.2694 C1532.19,449.2694 1099,449.2694 1099,449.2694 C1099,449.2694 1099,167.2994 1099,89.6794" fill="none" id="P8-to-P5" style="stroke:#181818;stroke-width:1;"/><polygon fill="#181818" points="1099,83.6794,1095,92.6794,1099,88.6794,1103,92.6794,1099,83.6794" style="stroke:#181818;stroke-width:1;"/><text fill="#000000" font-family="sans-serif" font-size="11" lengthAdjust="spacing" textLength="105.166" x="1124.1" y="461.6883">12 structural, 18 uses</text></g><!--link P8 to P10--><g class="link" data-entity-1="ent0009" data-entity-2="ent0011" data-link-type="dependency" data-source-line="53" id="lnk43"><path d="M1912.08,446.1094 C1986.95,446.1094 2080,446.1094 2080,446.1094 C2080,446.1094 2080,361.1694 2080,320.6694" fill="none" id="P8-to-P10" style="stroke:#181818;stroke-width:1;stroke-dasharray:7,7;"/><polygon fill="#181818" points="2080,314.6694,2076,323.6694,2080,319.6694,2084,323.6694,2080,314.6694" style="stroke:#181818;stroke-width:1;"/><text fill="#000000" font-family="sans-serif" font-size="11" lengthAdjust="spacing" textLength="38.5269" x="2022.76" y="443.5283">10 uses</text></g><!--link P9 to P4--><g class="link" data-entity-1="ent0010" data-entity-2="ent0005" data-link-type="dependency" data-source-line="54" id="lnk44"><path d="M2327,276.3594 C2327,275.5094 2327,275.0094 2327,275.0094 C2327,275.0094 1253.21,275.0094 921.05,275.0094" fill="none" id="P9-to-P4" style="stroke:#181818;stroke-width:1;stroke-dasharray:7,7;"/><polygon fill="#181818" points="915.05,275.0094,924.05,279.0094,920.05,275.0094,924.05,271.0094,915.05,275.0094" style="stroke:#181818;stroke-width:1;"/><text fill="#000000" font-family="sans-serif" font-size="11" lengthAdjust="spacing" textLength="32.4092" x="1588.7" y="287.4283">2 uses</text></g><!--link P10 to P2--><g class="link" data-entity-1="ent0011" data-entity-2="ent0003" data-link-type="dependency" data-source-line="55" id="lnk45"><path d="M1971.76,282.6094 C1734.31,282.6094 993,282.6094 993,282.6094 C993,282.6094 993,218.1094 993,218.1094 C993,218.1094 612.11,218.1094 434.16,218.1094" fill="none" id="P10-to-P2" style="stroke:#181818;stroke-width:1;"/><polygon fill="#181818" points="428.16,218.1094,437.16,222.1094,433.16,218.1094,437.16,214.1094,428.16,218.1094" style="stroke:#181818;stroke-width:1;"/><text fill="#000000" font-family="sans-serif" font-size="11" lengthAdjust="spacing" textLength="92.9307" x="1168.71" y="295.0283">1 structural, 2 uses</text></g><!--link P10 to P3--><g class="link" data-entity-1="ent0011" data-entity-2="ent0004" data-link-type="dependency" data-source-line="56" id="lnk46"><path d="M2008,314.6994 C2008,332.3694 2008,355.9394 2008,355.9394 C2008,355.9394 980.56,355.9394 669.22,355.9394" fill="none" id="P10-to-P3" style="stroke:#181818;stroke-width:1;"/><polygon fill="#181818" points="663.22,355.9394,672.22,359.9394,668.22,355.9394,672.22,351.9394,663.22,355.9394" style="stroke:#181818;stroke-width:1;"/><text fill="#000000" font-family="sans-serif" font-size="11" lengthAdjust="spacing" textLength="92.9307" x="1263.23" y="368.3583">1 structural, 3 uses</text></g><?plantuml-src XP9Bhvim48Nt_XNMNISeOFFgeb8sbRgpTBkhkd1XRh2kiIDiagQ_lhmAJEWjEtJccvapnsXuyzHRsgXBvMcf6YYyieQuTsMkif4rrSg0Vro1siPNTbLmbIpjNPaBVPFQmQfIQEdSsVj6_MmzV2siULM_WPvMo5KMx_82h_wXWVPBfRdezOnpqzZx5slyq1g6szvlociuQtKnDHXFTNS9yRr6nGZG4gvWIZ35WzeRD3S5TqBcPVIbi7K0lsHzrH1Ke9LrGMrBq2zKEYh27LIslXh9Q8SifPSZoNP8rxiiO8Jv3jogaOjtkQ1JQsj6FDd7uTObEjBfFctaRMIpVTPNK4_dvV-dfqSu4I92UlnUgR9xoH_7pttS8i8A8u9XXHF1iH8J4MCb8IB1Iaf4YfMCY0mhEH4vLWQFZ0P1_qq_qIIdhGCtE3XEMaoTRzh2jutKX-vt3Z4ITGX3I881rW5XZWWMpyYu-jGpanOlgyCCjQLFI3HqBSHSO1yL-CPiD8ySdEJ8o6AEJreoQdo59TlET3a1Nn2dcE2RVACPs2QJBMDPY5-5vvZf4uXG0jcoaNFSZ5lZVcE4YMn61bVfC1rrvK-H7-R8ilKbfqdCbnp_3kfg_tpLmuPW6u8z4NnxGyIVcFo3FNy0?></g></svg>